<svg width="18" height="18" viewBox="0 0 18 18" fill="none" xmlns="http://www.w3.org/2000/svg">
<path fill-rule="evenodd" clip-rule="evenodd" d="M8.99995 2.24999C7.20975 2.24999 5.49287 2.96114 4.22701 4.22701C2.96114 5.49287 2.24999 7.20975 2.24999 8.99995C2.24999 10.7902 2.96114 12.507 4.22701 13.7729C5.49287 15.0388 7.20975 15.7499 8.99995 15.7499C10.7902 15.7499 12.507 15.0388 13.7729 13.7729C15.0388 12.507 15.7499 10.7902 15.7499 8.99995C15.7499 7.20975 15.0388 5.49287 13.7729 4.22701C12.507 2.96114 10.7902 2.24999 8.99995 2.24999ZM0 8.99995C0 6.61301 0.948206 4.32384 2.63602 2.63602C4.32384 0.948206 6.61301 0 8.99995 0C11.3869 0 13.6761 0.948206 15.3639 2.63602C17.0517 4.32384 17.9999 6.61301 17.9999 8.99995C17.9999 11.3869 17.0517 13.6761 15.3639 15.3639C13.6761 17.0517 11.3869 17.9999 8.99995 17.9999C6.61301 17.9999 4.32384 17.0517 2.63602 15.3639C0.948206 13.6761 0 11.3869 0 8.99995Z" fill="black"/>
<path fill-rule="evenodd" clip-rule="evenodd" d="M15.3639 2.63602C15.5748 2.84699 15.6934 3.13292 15.6934 3.43123C15.6934 3.72954 15.5749 4.01563 15.364 4.2266L4.2266 15.364C4.01443 15.569 3.73025 15.6824 3.43528 15.6798C3.14031 15.6772 2.85815 15.5589 2.64956 15.3503C2.44098 15.1418 2.32267 14.8596 2.3201 14.5646C2.31754 14.2697 2.43093 13.9855 2.63586 13.7733L13.7733 2.63586C13.9843 2.42496 14.2704 2.30648 14.5687 2.30648C14.867 2.30648 15.1529 2.42512 15.3639 2.63602Z" fill="black"/>
</svg>
