<svg width="28" height="20" viewBox="0 0 28 20" fill="none" xmlns="http://www.w3.org/2000/svg">
<path d="M9.33405 12.7018C10.3687 12.7015 11.374 12.9688 12.1921 13.4615C13.0101 13.9542 13.5944 14.6444 13.853 15.4236H26.8314C27.1229 15.4231 27.404 15.5076 27.6194 15.6604C27.8348 15.8131 27.9689 16.0231 27.9952 16.2488C28.0216 16.4746 27.9383 16.6999 27.7617 16.8803C27.5852 17.0607 27.3282 17.1832 27.0413 17.2236L26.8314 17.2381L13.853 17.2399C13.5952 18.0197 13.0113 18.7107 12.1932 19.2041C11.3751 19.6975 10.3693 19.9653 9.33405 19.9653C8.29881 19.9653 7.29297 19.6975 6.47487 19.2041C5.65677 18.7107 5.07286 18.0197 4.81508 17.2399L1.16864 17.2381C0.877142 17.2385 0.596008 17.154 0.380598 17.0013C0.165188 16.8485 0.0311118 16.6386 0.0047738 16.4128C-0.0215643 16.187 0.0617439 15.9617 0.238293 15.7813C0.414842 15.6009 0.671837 15.4785 0.95867 15.4381L1.16864 15.4236H4.81508C5.07373 14.6444 5.65801 13.9542 6.47603 13.4615C7.29406 12.9688 8.29943 12.7015 9.33405 12.7018ZM9.33405 14.5163C8.71531 14.5163 8.12191 14.7075 7.68439 15.0478C7.24687 15.388 7.00107 15.8496 7.00107 16.3308C7.00107 16.8121 7.24687 17.2736 7.68439 17.6139C8.12191 17.9542 8.71531 18.1454 9.33405 18.1454C9.95279 18.1454 10.5462 17.9542 10.9837 17.6139C11.4212 17.2736 11.667 16.8121 11.667 16.3308C11.667 15.8496 11.4212 15.388 10.9837 15.0478C10.5462 14.7075 9.95279 14.5163 9.33405 14.5163ZM18.6659 1.17294e-07C19.7006 -0.000204403 20.7059 0.267056 21.524 0.759756C22.342 1.25246 22.9263 1.94265 23.1849 2.7218H26.8314C27.1229 2.72139 27.404 2.80587 27.6194 2.95862C27.8348 3.11136 27.9689 3.3213 27.9952 3.54709C28.0216 3.77289 27.9383 3.99817 27.7617 4.17857C27.5852 4.35898 27.3282 4.48143 27.0413 4.52182L26.8314 4.53634L23.1849 4.53815C22.9271 5.31797 22.3432 6.00897 21.5251 6.50237C20.707 6.99576 19.7012 7.26354 18.6659 7.26354C17.6307 7.26354 16.6249 6.99576 15.8068 6.50237C14.9887 6.00897 14.4048 5.31797 14.147 4.53815L1.16864 4.53634C0.877142 4.53676 0.596008 4.45227 0.380598 4.29953C0.165188 4.14678 0.0311118 3.93684 0.0047738 3.71105C-0.0215643 3.48526 0.0617439 3.25998 0.238293 3.07957C0.414842 2.89917 0.671837 2.77671 0.95867 2.73632L1.16864 2.7218H14.147C14.4056 1.94265 14.9899 1.25246 15.8079 0.759756C16.626 0.267056 17.6313 -0.000204403 18.6659 1.17294e-07ZM18.6659 1.81454C18.0472 1.81454 17.4538 2.00571 17.0163 2.346C16.5788 2.68629 16.333 3.14783 16.333 3.62907C16.333 4.11032 16.5788 4.57185 17.0163 4.91214C17.4538 5.25243 18.0472 5.44361 18.6659 5.44361C19.2847 5.44361 19.8781 5.25243 20.3156 4.91214C20.7531 4.57185 20.9989 4.11032 20.9989 3.62907C20.9989 3.14783 20.7531 2.68629 20.3156 2.346C19.8781 2.00571 19.2847 1.81454 18.6659 1.81454Z" fill="white"/>
</svg>
