<svg width="7" height="9" viewBox="0 0 7 9" fill="none" xmlns="http://www.w3.org/2000/svg">
<path d="M1.46986 9C1.23436 8.99861 1.0018 8.9475 0.787423 8.85001C0.555566 8.74781 0.358025 8.58104 0.218396 8.3696C0.0787661 8.15816 0.0029495 7.911 0 7.65763V1.34325C0.0029495 1.08988 0.0787661 0.842718 0.218396 0.631279C0.358025 0.41984 0.555566 0.253061 0.787423 0.150861C1.0542 0.024849 1.35102 -0.0236857 1.64404 0.0107876C1.93706 0.045261 2.21451 0.161356 2.44476 0.345842L6.26939 3.50303C6.41937 3.62244 6.54049 3.77412 6.62374 3.94681C6.70699 4.11949 6.75023 4.30873 6.75023 4.50044C6.75023 4.69214 6.70699 4.88138 6.62374 5.05407C6.54049 5.22675 6.41937 5.37844 6.26939 5.49784L2.44476 8.65503C2.16907 8.87861 1.82481 9.00042 1.46986 9Z" fill="black"/>
</svg>
