<svg width="8" height="4" viewBox="0 0 8 4" fill="none" xmlns="http://www.w3.org/2000/svg">
<path d="M0.0753994 0.438348L3.56165 3.92459C3.58549 3.94849 3.61381 3.96746 3.64499 3.9804C3.67617 3.99333 3.70959 3.99999 3.74335 3.99999C3.77711 3.99999 3.81053 3.99333 3.84171 3.9804C3.87289 3.96746 3.90121 3.94849 3.92505 3.92459L7.4113 0.438348C7.44729 0.402454 7.4718 0.356683 7.48174 0.306839C7.49168 0.256994 7.4866 0.20532 7.46714 0.158368C7.44768 0.111416 7.41471 0.0713002 7.37242 0.0431061C7.33013 0.0149119 7.28042 -9.05257e-05 7.2296 4.10967e-07H0.257103C0.206277 -9.05257e-05 0.156568 0.0149119 0.114279 0.0431061C0.0719899 0.0713002 0.0390242 0.111416 0.0195616 0.158368C9.90433e-05 0.20532 -0.00498408 0.256994 0.00495664 0.306839C0.0148974 0.356683 0.0394145 0.402454 0.0753994 0.438348Z" fill="white"/>
</svg>
