<svg width="20" height="16" viewBox="0 0 20 16" fill="none" xmlns="http://www.w3.org/2000/svg">
<path d="M10.0001 7.66666C9.44755 7.66666 8.91764 7.49107 8.52694 7.17851C8.13624 6.86595 7.91675 6.44202 7.91675 6C7.91675 5.55797 8.13624 5.13404 8.52694 4.82148C8.91764 4.50892 9.44755 4.33333 10.0001 4.33333C10.5526 4.33333 11.0825 4.50892 11.4732 4.82148C11.8639 5.13404 12.0834 5.55797 12.0834 6C12.0834 6.21886 12.0295 6.43559 11.9248 6.6378C11.8201 6.84001 11.6667 7.02374 11.4732 7.17851C11.2798 7.33327 11.0501 7.45604 10.7973 7.53979C10.5446 7.62355 10.2737 7.66666 10.0001 7.66666ZM10.0001 1.33333C8.45299 1.33333 6.96925 1.82499 5.87529 2.70016C4.78133 3.57533 4.16675 4.76232 4.16675 6C4.16675 9.5 10.0001 14.6667 10.0001 14.6667C10.0001 14.6667 15.8334 9.5 15.8334 6C15.8334 4.76232 15.2188 3.57533 14.1249 2.70016C13.0309 1.82499 11.5472 1.33333 10.0001 1.33333Z" fill="#1976D2"/>
</svg>
