<svg width="15" height="11" viewBox="0 0 15 11" fill="none" xmlns="http://www.w3.org/2000/svg">
<path d="M12.9599 11L8.0414 7.15C7.65104 7.39444 7.20213 7.58796 6.69466 7.73056C6.18719 7.87315 5.6472 7.94444 5.07467 7.94444C3.65636 7.94444 2.45614 7.55985 1.474 6.79067C0.491853 6.02148 0.000520479 5.082 0 3.97222C0 2.86204 0.491332 1.92256 1.474 1.15378C2.45666 0.385 3.65688 0.000407407 5.07467 0C6.49297 0 7.69346 0.384593 8.67612 1.15378C9.65879 1.92296 10.1499 2.86244 10.1493 3.97222C10.1493 4.42037 10.0583 4.84306 9.87609 5.24028C9.69392 5.6375 9.44669 5.98889 9.1344 6.29444L14.0529 10.1444L12.9599 11ZM5.07467 6.72222C6.05057 6.72222 6.88021 6.45496 7.5636 5.92044C8.24699 5.38593 8.58842 4.73652 8.5879 3.97222C8.5879 3.20833 8.24647 2.55913 7.5636 2.02461C6.88073 1.49009 6.05109 1.22263 5.07467 1.22222C4.09877 1.22222 3.26939 1.48969 2.58652 2.02461C1.90365 2.55954 1.56196 3.20874 1.56144 3.97222C1.56144 4.73611 1.90313 5.38552 2.58652 5.92044C3.26991 6.45537 4.09929 6.72263 5.07467 6.72222Z" fill="#1976D2"/>
</svg>
